<?xml version="1.0" standalone="no"?>
<!DOCTYPE svg PUBLIC "-//W3C//DTD SVG 20010904//EN"
 "http://www.w3.org/TR/2001/REC-SVG-20010904/DTD/svg10.dtd">
<svg version="1.0" xmlns="http://www.w3.org/2000/svg"
 width="736.000000pt" height="339.000000pt" viewBox="0 0 736.000000 339.000000"
 preserveAspectRatio="xMidYMid meet">

<g transform="translate(0.000000,339.000000) scale(0.100000,-0.100000)"
fill="#000000" stroke="none">
<path d="M3880 3271 c0 -22 43 -64 55 -54 4 5 5 2 1 -5 -5 -8 -1 -21 9 -32 17
-18 20 -43 13 -85 -3 -23 23 -28 30 -6 3 8 0 11 -5 8 -5 -3 -10 0 -10 7 0 8 5
12 12 10 6 -3 12 8 13 26 1 16 -1 30 -6 30 -4 0 -8 9 -9 21 -2 18 2 20 25 14
15 -3 39 -15 55 -26 15 -11 32 -17 37 -14 5 3 12 0 16 -6 5 -8 3 -9 -6 -4 -8
5 -2 -7 13 -26 22 -30 27 -46 28 -106 2 -74 -9 -104 -58 -166 -24 -30 -30 -62
-13 -72 15 -9 122 47 127 67 3 9 10 15 16 13 7 -3 19 1 27 8 25 19 60 74 53
81 -3 3 -1 6 5 6 6 0 15 15 20 33 9 34 29 42 43 17 10 -20 21 -51 25 -70 20
-114 6 -184 -53 -267 -24 -35 -49 -63 -54 -63 -18 0 -88 -72 -83 -85 5 -11 10
-12 27 -2 38 21 86 70 80 80 -3 6 -1 7 6 3 6 -4 24 6 42 24 24 23 30 36 25 55
-4 17 0 28 17 42 24 18 56 90 36 77 -8 -4 -9 1 -4 16 12 39 13 74 2 95 -6 11
-11 32 -12 47 -2 14 -10 37 -19 49 -9 13 -16 30 -16 37 0 20 -61 102 -72 96
-5 -3 -7 0 -6 7 2 7 -5 15 -14 17 -24 5 -23 -25 0 -32 10 -4 19 -13 19 -20 0
-8 -6 -12 -12 -9 -9 3 -11 -7 -5 -39 5 -27 4 -48 -2 -55 -6 -7 -8 -19 -5 -27
3 -8 -1 -17 -10 -20 -9 -4 -13 -14 -10 -26 3 -11 0 -23 -5 -27 -7 -4 -8 -1 -3
7 5 8 3 11 -6 8 -8 -3 -13 -11 -11 -17 1 -7 -2 -10 -6 -7 -5 3 -17 -3 -27 -14
-10 -11 -24 -20 -32 -20 -8 0 -11 -5 -7 -12 5 -10 4 -10 -7 0 -11 10 -10 21 6
70 26 75 24 126 -8 187 -42 81 -112 133 -207 155 -25 6 -53 12 -62 15 -12 2
-18 -2 -18 -14z m45 -20 c-6 -5 -25 10 -25 20 0 5 6 4 14 -3 8 -7 12 -15 11
-17z m252 -243 c-3 -8 -6 -5 -6 6 -1 11 2 17 5 13 3 -3 4 -12 1 -19z m176
-371 c7 3 8 2 4 -2 -14 -16 -36 -14 -29 3 4 10 7 12 10 4 2 -7 9 -9 15 -5z"/>
<path d="M3469 3076 c-2 -2 -20 -7 -40 -10 -47 -7 -70 -16 -64 -25 2 -4 -2 -8
-10 -8 -8 0 -12 4 -9 9 9 14 -13 9 -25 -6 -6 -7 -30 -16 -52 -20 -22 -4 -51
-17 -63 -29 -13 -13 -27 -22 -33 -20 -5 2 -16 -3 -23 -12 -7 -8 -18 -15 -24
-15 -13 0 -136 -113 -136 -125 0 -5 -11 -23 -25 -41 -14 -18 -25 -36 -25 -40
0 -4 -9 -26 -19 -48 -27 -58 -36 -100 -19 -90 10 6 10 5 1 -7 -32 -39 -21
-226 18 -322 10 -23 14 -25 27 -15 13 11 14 10 4 -8 -9 -18 -8 -24 5 -35 14
-12 16 -12 8 0 -5 9 -4 12 3 7 6 -4 9 -13 6 -21 -8 -20 28 -76 46 -73 25 5 22
33 -6 63 -14 15 -42 69 -62 119 -46 118 -49 212 -11 324 14 39 22 72 17 72 -4
0 -1 8 7 18 58 66 76 93 69 103 -4 8 -3 9 4 5 7 -4 12 -3 12 2 0 13 137 112
155 112 8 0 15 7 15 15 0 9 6 12 17 8 12 -5 14 -3 8 7 -6 10 -4 12 7 8 16 -7
80 20 74 31 -4 5 15 9 67 11 9 1 17 4 17 8 0 10 276 4 339 -8 72 -13 113 -13
161 2 40 13 58 34 42 50 -14 14 -63 -10 -69 -33 -3 -11 -9 -17 -12 -12 -16 23
-383 67 -402 49z m-465 -901 c-4 -8 -11 -12 -16 -9 -6 4 -5 10 3 15 19 12 19
11 13 -6z"/>
<path d="M3446 2877 c-16 -12 -18 -29 -17 -146 1 -89 -2 -138 -10 -147 -9 -11
-43 -14 -150 -14 -96 0 -140 -4 -145 -12 -4 -6 -6 -32 -5 -57 1 -25 3 -93 4
-151 l2 -105 150 -5 150 -5 2 -75 c2 -41 4 -92 6 -112 1 -21 -1 -38 -5 -38 -4
0 -5 -7 -2 -15 4 -9 -1 -18 -11 -22 -21 -8 -113 11 -179 36 -16 7 -31 9 -34 7
-2 -3 -12 4 -21 15 -9 11 -26 21 -37 21 -12 1 -20 7 -18 13 5 14 -76 69 -87
58 -12 -12 20 -56 36 -49 7 2 12 -2 11 -11 0 -9 13 -24 29 -34 17 -10 38 -23
48 -29 9 -6 17 -8 17 -5 0 3 10 -3 21 -14 30 -27 206 -62 193 -38 -4 7 4 2 16
-10 13 -12 24 -30 25 -40 3 -34 50 -123 62 -119 7 3 15 0 19 -6 4 -7 3 -8 -4
-4 -24 14 -11 -8 19 -35 33 -29 58 -35 157 -38 57 -2 63 0 60 16 -2 14 -14 18
-58 20 -96 5 -119 12 -156 51 -18 20 -34 40 -34 45 0 4 -5 5 -11 1 -7 -4 -10
-1 -7 7 3 8 -1 28 -8 46 -11 26 -11 33 1 43 8 7 13 16 10 19 -2 4 2 8 10 8 8
0 12 -4 9 -9 -3 -4 49 -8 114 -8 87 0 121 3 125 13 2 6 5 73 6 147 1 74 6 139
10 143 5 5 69 8 143 8 73 0 140 4 148 9 12 8 15 38 14 155 0 80 -5 150 -10
155 -5 5 -77 10 -159 10 l-150 2 5 129 c6 157 3 172 -35 180 -59 13 -250 10
-269 -4z m260 -35 c15 -10 39 -57 25 -48 -15 10 -14 -7 2 -23 10 -11 10 -13 0
-7 -10 6 -13 -20 -13 -113 l0 -121 155 0 156 0 -3 -122 -3 -123 -57 -3 -58 -3
0 81 0 80 -134 0 c-113 0 -135 2 -140 16 -3 9 -6 72 -6 140 l0 124 -80 0 c-46
0 -80 4 -81 10 0 6 0 30 0 55 0 25 0 50 0 55 1 12 220 14 237 2z m-266 -345
c0 -53 -10 -57 -157 -57 -140 0 -135 -1 -135 45 0 47 -6 45 147 45 l145 0 0
-33z m272 -252 c10 -4 12 -33 8 -138 l-5 -132 -45 -5 -45 -5 3 129 c2 73 8
136 14 143 11 13 46 17 70 8z m-547 -233 c-3 -3 -11 0 -18 7 -9 10 -8 11 6 5
10 -3 15 -9 12 -12z"/>
<path d="M4402 2718 c-14 -14 -16 -28 -3 -28 5 0 11 9 14 20 6 23 5 24 -11 8z"/>
<path d="M4225 2510 c-3 -5 -3 -21 -1 -35 27 -146 34 -205 24 -220 -4 -6 -10
-38 -13 -71 -9 -74 9 -119 61 -159 19 -14 34 -34 34 -44 0 -21 -19 -41 -38
-41 -8 0 -26 -12 -39 -27 -25 -26 -27 -57 -8 -105 8 -21 -42 -50 -73 -41 -17
4 -22 1 -22 -15 0 -14 12 -26 38 -39 34 -17 37 -21 38 -63 1 -111 -52 -176
-132 -161 -22 4 -47 12 -55 16 -27 17 -159 32 -204 24 -59 -11 -101 -34 -108
-58 -8 -31 17 -32 58 -3 31 23 48 27 99 26 35 0 88 -10 123 -22 81 -29 163
-29 188 -2 10 11 15 20 12 20 -3 0 4 11 17 25 23 25 34 81 13 68 -5 -3 -7 0
-5 8 3 8 10 13 17 12 6 -2 9 9 7 27 -2 17 0 30 4 30 5 0 3 16 -2 35 -7 20 -16
32 -22 28 -6 -4 -5 0 1 9 7 8 12 17 10 19 -1 2 0 3 2 1 2 -1 13 5 23 15 14 12
17 24 12 50 -7 39 2 83 17 83 6 0 24 9 40 21 43 30 40 74 -8 119 -20 19 -40
34 -43 33 -13 -4 -15 53 -6 213 3 51 1 105 -4 120 -5 16 -14 48 -21 72 -12 41
-22 51 -34 32z m56 -607 c-12 -20 -14 -14 -5 12 4 9 9 14 11 11 3 -2 0 -13 -6
-23z"/>
<path d="M1368 1182 c-16 -3 -18 -22 -20 -180 -2 -97 1 -195 6 -217 12 -51 44
-98 63 -91 8 3 11 2 8 -4 -7 -11 52 -43 65 -35 6 3 10 2 10 -3 0 -4 30 -8 68
-8 72 1 149 30 144 54 -1 8 1 11 5 9 12 -8 37 15 50 44 7 16 12 91 12 194 1
92 4 171 7 176 2 4 2 20 -2 34 -6 22 -11 25 -54 25 l-49 0 4 -155 c2 -86 0
-176 -4 -201 -19 -102 -153 -134 -214 -51 -23 31 -24 39 -25 207 0 96 -2 177
-3 180 -1 3 -1 8 0 13 0 4 -2 7 -6 8 -39 4 -50 4 -65 1z m52 -468 c0 -8 -19
-13 -24 -6 -3 5 1 9 9 9 8 0 15 -2 15 -3z"/>
<path d="M2490 1178 c-11 -4 -20 -15 -20 -25 0 -9 -9 -36 -20 -60 -11 -24 -29
-63 -41 -88 -12 -25 -18 -53 -14 -62 3 -10 3 -14 -2 -10 -4 4 -21 -21 -38 -56
-29 -59 -55 -78 -55 -38 0 9 -8 28 -17 41 -10 14 -18 30 -19 37 -1 7 -13 36
-27 65 -14 29 -28 67 -32 85 -3 17 -13 37 -21 44 -8 6 -14 20 -14 30 0 11 -5
19 -11 19 -5 0 -8 4 -5 9 3 5 -23 9 -59 10 l-65 1 0 -265 0 -265 45 0 45 0 2
167 c2 103 7 168 13 170 11 3 95 -164 95 -190 0 -8 14 -45 31 -81 22 -47 36
-66 50 -66 10 0 19 6 19 13 0 9 3 8 9 -2 10 -16 14 -10 31 44 6 22 29 77 51
122 21 46 39 91 39 101 0 23 29 64 42 60 7 -3 11 -59 10 -158 0 -85 1 -162 4
-171 3 -12 13 -15 37 -13 17 2 34 9 35 14 2 6 7 8 10 6 4 -2 6 91 5 207 -2
117 -3 233 -3 258 l0 47 -45 4 c-25 2 -55 0 -65 -4z m-175 -508 c-3 -5 -12
-10 -18 -10 -7 0 -6 4 3 10 19 12 23 12 15 0z"/>
<path d="M3594 1184 c-6 -2 -102 -5 -215 -7 -202 -2 -204 -2 -205 -24 -2 -41
11 -48 84 -45 48 2 73 -1 78 -9 7 -11 15 -230 12 -304 -1 -16 -2 -55 -2 -85
l-1 -55 48 0 48 0 1 205 c0 113 5 215 9 228 7 18 16 22 51 22 112 -2 109 -3
106 41 -1 21 -2 39 -2 38 -1 0 -6 -3 -12 -5z"/>
<path d="M4203 1182 c-22 -3 -23 -7 -23 -112 0 -62 -4 -111 -10 -115 -13 -8
-202 -7 -224 1 -15 6 -17 20 -14 116 l3 109 -50 -3 -50 -3 -3 -259 c-2 -170 1
-263 8 -270 6 -6 10 -6 10 0 0 5 18 8 40 6 l39 -4 3 113 3 114 125 0 125 0 -4
-112 -3 -113 53 0 54 0 -1 253 c0 138 -1 257 -2 263 -2 13 -44 21 -79 16z"/>
<path d="M4536 1183 c-3 -4 -6 -125 -6 -270 1 -195 4 -263 13 -264 12 -1 35 1
67 6 12 1 16 20 18 86 3 94 12 109 68 109 28 0 35 -5 54 -45 12 -25 26 -45 31
-45 6 0 8 -4 5 -8 -3 -5 4 -23 15 -40 10 -18 19 -39 19 -48 0 -18 24 -29 42
-18 7 5 25 7 40 5 34 -3 35 4 3 51 -14 20 -25 41 -25 46 0 6 -11 30 -25 53
-32 56 -31 68 3 80 19 6 33 23 46 55 17 42 18 63 3 136 -6 32 -48 80 -83 94
-42 18 -175 19 -193 2 -11 -10 -13 -10 -7 0 4 6 2 12 -3 12 -6 0 -11 -4 -11
-9 0 -5 -7 -12 -16 -15 -14 -5 -15 -4 -5 8 9 11 8 15 -4 20 -11 4 -14 2 -9 -7
5 -9 4 -9 -7 1 -15 14 -23 15 -33 5z m262 -108 c28 -34 30 -97 3 -124 -11 -11
-17 -21 -15 -23 2 -3 -31 -4 -74 -4 l-77 1 -5 78 c-3 43 -2 84 2 91 5 9 28 12
75 10 59 -3 71 -7 91 -29z"/>
<path d="M5485 1180 c-6 -10 27 -121 65 -220 20 -52 39 -111 45 -137 2 -10 16
-43 31 -73 24 -49 31 -69 33 -92 1 -5 33 -8 71 -8 60 0 70 2 70 18 0 9 11 44
24 77 49 120 96 263 96 289 0 10 4 15 8 12 8 -4 37 80 34 97 -1 4 2 7 8 7 6 0
10 7 10 16 0 12 -11 15 -55 12 l-55 -3 -26 -72 c-15 -40 -24 -79 -20 -88 3
-10 2 -14 -5 -9 -6 4 -9 -1 -8 -12 2 -11 -4 -34 -14 -53 -9 -19 -17 -40 -17
-48 0 -7 -4 -21 -10 -31 -5 -9 -16 -34 -25 -55 -15 -41 -29 -42 -39 -4 -3 13
-12 40 -21 60 -8 20 -16 40 -16 44 -1 5 -6 19 -11 33 -6 14 -14 41 -18 60 -7
31 -27 92 -51 158 -7 18 -16 22 -42 20 -18 -1 -38 1 -44 5 -6 4 -15 3 -18 -3z"/>
<path d="M6202 1183 c-11 -4 -3 -526 9 -537 6 -6 9 -6 9 0 0 5 65 8 165 6
l165 -3 0 35 0 35 -122 3 -123 3 0 75 0 75 112 3 112 3 -1 33 -1 34 -76 1
c-42 0 -93 0 -113 0 l-38 1 0 74 c0 88 -4 86 148 86 l102 0 0 35 0 34 -170 3
c-94 2 -174 2 -178 1z"/>
<path d="M789 1171 c0 -10 -1 -401 0 -464 l1 -57 163 2 162 3 3 33 c4 36 6 35
-149 32 -45 -1 -69 3 -77 13 -8 9 -12 84 -14 228 l-3 214 -42 1 c-24 1 -43 -2
-44 -5z"/>
<path d="M2851 922 c0 -140 3 -260 5 -266 3 -7 23 -10 49 -8 l45 4 0 263 0
264 -50 -1 -50 0 1 -256z"/>
<path d="M5152 943 c-1 -131 0 -250 4 -265 5 -25 10 -28 50 -28 l44 0 0 265 0
265 -26 0 c-17 0 -23 -4 -18 -12 6 -10 4 -10 -7 0 -7 6 -20 12 -28 12 -14 0
-16 -31 -19 -237z"/>
</g>
</svg>
